<svg width="349" height="145" viewBox="0 0 349 145" fill="none" xmlns="http://www.w3.org/2000/svg">
<g clip-path="url(#clip0_5502_55)">
<path fill-rule="evenodd" clip-rule="evenodd" d="M58 25.3786C39.9819 25.3786 25.375 39.9856 25.375 58.0036C25.375 76.0217 39.9819 90.6286 58 90.6286C76.0181 90.6286 90.625 76.0217 90.625 58.0036C90.625 39.9856 76.0181 25.3786 58 25.3786ZM58 87.0036C41.9829 87.0036 29 74.0189 29 58.0036C29 41.9884 41.9829 29.0036 58 29.0036C74.0171 29.0036 87 41.9884 87 58.0036C87 74.0189 74.0171 87.0036 58 87.0036Z" fill="#FFCF23"/>
<path fill-rule="evenodd" clip-rule="evenodd" d="M58 36.2536C56.9977 36.2536 56.1875 37.0638 56.1875 38.0661C56.1875 39.0684 56.9977 39.8786 58 39.8786C68.0086 39.8786 76.125 47.9932 76.125 58.0036C76.125 59.0059 76.9352 59.8161 77.9375 59.8161C78.9398 59.8161 79.75 59.0059 79.75 58.0036C79.75 45.9922 70.0114 36.2536 58 36.2536Z" fill="#FFCF23"/>
<path fill-rule="evenodd" clip-rule="evenodd" d="M114.188 56.1875H96.0625C95.0602 56.1875 94.25 56.9977 94.25 58C94.25 59.0023 95.0602 59.8125 96.0625 59.8125H114.188C115.19 59.8125 116 59.0023 116 58C116 56.9977 115.19 56.1875 114.188 56.1875Z" fill="#FFCF23"/>
<path fill-rule="evenodd" clip-rule="evenodd" d="M20.7659 66.1019L13.7642 67.9778C12.7963 68.2388 12.2217 69.2321 12.4827 70.1999C12.7419 71.166 13.7334 71.7406 14.7031 71.4796L21.7047 69.6036C22.6708 69.3444 23.2454 68.353 22.9862 67.3833C22.727 66.4172 21.7319 65.8427 20.7659 66.1019Z" fill="#FFCF23"/>
<path fill-rule="evenodd" clip-rule="evenodd" d="M89.3926 39.875C89.8946 40.7432 91.0021 41.0404 91.8702 40.5384L107.566 31.4759C108.435 30.9756 108.732 29.8664 108.228 29C107.73 28.1318 106.62 27.8364 105.754 28.3384L90.0577 37.4009C89.1896 37.903 88.8941 39.0068 89.3926 39.875Z" fill="#FFCF23"/>
<path fill-rule="evenodd" clip-rule="evenodd" d="M32.3677 83.6342C31.6608 82.9255 30.5135 82.9291 29.8048 83.6342L24.679 88.7599C23.9704 89.4686 23.9722 90.6178 24.6809 91.3246C25.3877 92.0333 26.5332 92.0315 27.2419 91.3228L32.3677 86.1971C33.0764 85.492 33.0764 84.3429 32.3677 83.6342Z" fill="#FFCF23"/>
<path fill-rule="evenodd" clip-rule="evenodd" d="M76.125 26.6075C76.9932 27.1078 78.1007 26.8123 78.6027 25.9441L87.6652 10.2479C88.1673 9.3797 87.87 8.27045 87 7.7702C86.1337 7.26995 85.028 7.5672 84.526 8.43357L75.4653 24.1316C74.9614 24.9998 75.2587 26.1054 76.125 26.6075Z" fill="#FFCF23"/>
<path fill-rule="evenodd" clip-rule="evenodd" d="M48.6185 93.0139C47.6543 92.7547 46.661 93.3329 46.3982 94.2953L44.5223 101.297C44.2631 102.267 44.8413 103.26 45.8073 103.519C46.7734 103.78 47.7648 103.206 48.024 102.236L49.9 95.2342C50.1628 94.2717 49.5882 93.2767 48.6185 93.0139Z" fill="#FFCF23"/>
<path fill-rule="evenodd" clip-rule="evenodd" d="M58 21.75C59.0041 21.75 59.8143 20.9416 59.8161 19.9375V1.8125C59.8161 0.810188 59.006 0 58 0C57.0013 0 56.1911 0.810188 56.1893 1.8125L56.1911 19.9375C56.1911 20.9398 57.0013 21.75 58 21.75Z" fill="#FFCF23"/>
<path fill-rule="evenodd" clip-rule="evenodd" d="M69.6036 94.2953C69.348 93.3311 68.3548 92.7547 67.3833 93.0139C66.4172 93.2731 65.8463 94.2681 66.1019 95.2342L67.9778 102.236C68.2388 103.206 69.2339 103.776 70.2017 103.517C71.1696 103.258 71.7405 102.268 71.4795 101.297L69.6036 94.2953Z" fill="#FFCF23"/>
<path fill-rule="evenodd" clip-rule="evenodd" d="M37.4046 25.9405C37.903 26.8087 39.0122 27.1059 39.875 26.6057C40.745 26.1036 41.0441 24.998 40.542 24.128L31.4795 8.43174C30.9792 7.56537 29.87 7.26812 29 7.77018C28.1354 8.26862 27.8382 9.37787 28.3384 10.2442L37.4046 25.9405Z" fill="#FFCF23"/>
<path fill-rule="evenodd" clip-rule="evenodd" d="M86.1989 83.6324C85.4957 82.9255 84.3465 82.9255 83.636 83.6324C82.9274 84.3393 82.9328 85.4884 83.636 86.1953L88.7618 91.321C89.4723 92.0315 90.6196 92.0261 91.3265 91.3192C92.0352 90.6123 92.0352 89.4686 91.3247 88.7581L86.1989 83.6324Z" fill="#FFCF23"/>
<path fill-rule="evenodd" clip-rule="evenodd" d="M8.43533 31.4741L24.1352 40.5347C24.9998 41.035 26.1072 40.7396 26.6056 39.875C27.1077 39.0068 26.8141 37.8994 25.9459 37.3973L10.2478 28.3348C9.38145 27.8327 8.2722 28.13 7.77014 29C7.27351 29.8646 7.56895 30.9738 8.43533 31.4741Z" fill="#FFCF23"/>
<path fill-rule="evenodd" clip-rule="evenodd" d="M94.299 69.6L101.301 71.4759C102.27 71.7387 103.262 71.1569 103.521 70.1909C103.782 69.2266 103.209 68.2352 102.24 67.9742L95.2378 66.0982C94.2754 65.8354 93.2785 66.4118 93.0175 67.3797C92.7565 68.3475 93.3365 69.339 94.299 69.6Z" fill="#FFCF23"/>
<path fill-rule="evenodd" clip-rule="evenodd" d="M21.75 58C21.7518 56.9959 20.9434 56.1875 19.9411 56.1839L1.8125 56.1875C0.812 56.1875 0 56.9941 0 58C0.0018125 58.9987 0.812 59.8125 1.81431 59.8125L19.9411 59.8089C20.9398 59.8089 21.7518 59.0005 21.75 58Z" fill="#FFCF23"/>
<path fill-rule="evenodd" clip-rule="evenodd" d="M95.2378 49.8963L102.24 48.0204C103.209 47.7612 103.78 46.7643 103.519 45.7965C103.262 44.834 102.272 44.2595 101.301 44.5186L94.299 46.3946C93.3329 46.6501 92.7583 47.647 93.0175 48.6149C93.2731 49.5828 94.2718 50.1519 95.2378 49.8963Z" fill="#FFCF23"/>
<path fill-rule="evenodd" clip-rule="evenodd" d="M26.6075 76.125C26.1091 75.255 25.0017 74.9577 24.1335 75.458L8.43542 84.5241C7.56905 85.0244 7.26817 86.13 7.77024 87C8.2723 87.8646 9.38155 88.1618 10.2479 87.6616L25.9442 78.5954C26.8087 78.097 27.1096 76.9932 26.6075 76.125Z" fill="#FFCF23"/>
<path fill-rule="evenodd" clip-rule="evenodd" d="M83.636 32.364C84.3411 33.0745 85.4884 33.0672 86.1989 32.364L91.3246 27.2382C92.0351 26.5277 92.0315 25.3822 91.321 24.6736C90.6178 23.9667 89.4704 23.9649 88.7618 24.6754L83.636 29.8011C82.9255 30.5044 82.9291 31.6571 83.636 32.364Z" fill="#FFCF23"/>
<path fill-rule="evenodd" clip-rule="evenodd" d="M39.875 89.3925C39.0068 88.8904 37.903 89.1877 37.401 90.0522L28.3385 105.754C27.84 106.62 28.13 107.726 29 108.228C29.8682 108.725 30.9756 108.427 31.4777 107.563L40.5366 91.8629C41.0368 91.0002 40.745 89.8946 39.875 89.3925Z" fill="#FFCF23"/>
<path fill-rule="evenodd" clip-rule="evenodd" d="M67.3852 22.9825C68.3476 23.2453 69.3391 22.6635 69.6055 21.701L71.4814 14.6994C71.7406 13.7297 71.1624 12.7364 70.1964 12.4791C69.2339 12.2181 68.2389 12.7908 67.9797 13.7605L66.1038 20.7622C65.8373 21.7246 66.4191 22.7215 67.3852 22.9825Z" fill="#FFCF23"/>
<path fill-rule="evenodd" clip-rule="evenodd" d="M58 94.25C56.9977 94.2464 56.1911 95.0584 56.1875 96.0589L56.1911 114.191C56.1911 115.188 56.9941 116 58 116C59.0023 116 59.8125 115.186 59.8143 114.188L59.8089 96.0589C59.8089 95.0602 59.0059 94.25 58 94.25Z" fill="#FFCF23"/>
<path fill-rule="evenodd" clip-rule="evenodd" d="M46.4 21.7011C46.6519 22.6671 47.6524 23.2417 48.6203 22.9825C49.5845 22.7269 50.1537 21.7301 49.9017 20.7622L48.0258 13.7605C47.763 12.7908 46.7697 12.2181 45.8018 12.4809C44.8394 12.7382 44.2612 13.7279 44.524 14.6994L46.4 21.7011Z" fill="#FFCF23"/>
<path fill-rule="evenodd" clip-rule="evenodd" d="M78.5955 90.0577C78.0971 89.1913 76.9951 88.8904 76.1251 89.3961C75.2569 89.8927 74.9632 91.0002 75.4599 91.8684L84.5296 107.566C85.0281 108.433 86.1301 108.734 87.0001 108.23C87.8682 107.728 88.1637 106.618 87.6652 105.752L78.5955 90.0577Z" fill="#FFCF23"/>
<path fill-rule="evenodd" clip-rule="evenodd" d="M29.8029 32.364C30.5043 33.0781 31.6571 33.0709 32.3658 32.364C33.0745 31.6608 33.0672 30.5134 32.3658 29.8011L27.24 24.6754C26.5277 23.9649 25.3822 23.9685 24.6753 24.679C23.9685 25.3823 23.9648 26.5296 24.6771 27.2383L29.8029 32.364Z" fill="#FFCF23"/>
<path fill-rule="evenodd" clip-rule="evenodd" d="M107.568 84.5223L91.8666 75.4653C91.0002 74.965 89.8964 75.255 89.3961 76.1286C88.8923 76.9932 89.1931 78.097 90.0559 78.6009L105.759 87.6616C106.624 88.16 107.728 87.87 108.23 87C108.728 86.1318 108.431 85.0244 107.568 84.5223Z" fill="#FFCF23"/>
<path fill-rule="evenodd" clip-rule="evenodd" d="M21.7029 46.3982L14.6994 44.5204C13.7279 44.2594 12.7365 44.8376 12.4791 45.8037C12.2181 46.7661 12.789 47.7612 13.7605 48.024L20.7622 49.8981C21.7246 50.1627 22.7215 49.5809 22.9825 48.6167C23.2453 47.6561 22.6653 46.6646 21.7029 46.3982Z" fill="#FFCF23"/>
</g>
<path d="M93.7073 89.0674C93.7073 86.9198 93.807 84.1278 94.0064 80.6917C94.2058 77.2555 94.4436 73.7119 94.7197 70.0609C94.9958 66.41 95.341 62.9507 95.7552 59.6833C96.1694 56.4158 96.6219 53.9077 97.1128 52.1589C97.2969 51.3919 97.7341 50.9317 98.4244 50.7783C99.1147 50.6249 99.8127 50.5482 100.518 50.5482C101.469 50.5482 102.29 50.717 102.98 51.0544C103.671 51.3919 104.016 52.1283 104.016 53.2634C104.016 58.8472 103.671 64.4387 102.98 70.0379C102.29 75.6371 101.914 81.2286 101.853 86.8124C102.804 85.3704 104.031 84.2889 105.535 83.5679C107.038 82.8469 108.633 82.4865 110.321 82.4865C112.652 82.4865 114.662 82.962 116.349 83.9131C118.037 84.8642 119.402 86.0914 120.445 87.5947C121.488 89.0981 122.263 90.8392 122.769 92.8181C123.275 94.7969 123.529 96.8142 123.529 98.8698C123.529 100.005 123.414 101.424 123.183 103.127C122.953 104.829 122.608 106.624 122.148 108.511C121.688 110.398 121.105 112.269 120.399 114.126C119.694 115.982 118.857 117.646 117.891 119.119C116.925 120.591 115.812 121.78 114.555 122.685C113.297 123.59 111.916 124.043 110.413 124.043C110.106 124.043 109.699 123.997 109.193 123.905C108.687 123.813 108.181 123.675 107.674 123.491C107.168 123.307 106.746 123.069 106.409 122.777C106.071 122.486 105.903 122.125 105.903 121.696C105.903 121.205 106.202 120.86 106.8 120.66C107.398 120.461 107.882 120.361 108.25 120.361C109.63 119.748 110.858 118.467 111.931 116.519C113.005 114.57 113.903 112.43 114.624 110.099C115.345 107.767 115.889 105.458 116.257 103.173C116.625 100.887 116.81 99.0232 116.81 97.5812C116.81 96.7528 116.687 95.6483 116.441 94.2677C116.196 92.8871 115.82 91.5218 115.314 90.1719C114.808 88.8219 114.117 87.6561 113.243 86.6743C112.369 85.6925 111.333 85.2017 110.137 85.2017C108.695 85.2017 107.544 85.9457 106.685 87.4337C105.826 88.9217 105.151 90.6551 104.66 92.634C104.169 94.6129 103.839 96.6531 103.671 98.7547C103.502 100.856 103.418 102.505 103.418 103.702C103.418 104.469 103.548 105.228 103.809 105.98C104.07 106.732 104.369 107.483 104.706 108.235C105.044 108.987 105.343 109.754 105.604 110.536C105.864 111.318 105.995 112.093 105.995 112.86C105.995 113.228 105.834 113.535 105.512 113.78C105.189 114.026 104.814 114.225 104.384 114.379C103.955 114.532 103.502 114.632 103.026 114.678C102.551 114.724 102.19 114.747 101.945 114.747C100.196 114.747 98.9843 114.333 98.3093 113.504C97.6344 112.676 97.0514 111.51 96.5605 110.007C95.4867 106.601 94.7427 103.142 94.3286 99.6291C93.9144 96.1162 93.7073 92.5956 93.7073 89.0674ZM132.948 118.797C132.948 117.907 132.986 116.971 133.063 115.989C133.139 115.008 133.208 114.087 133.27 113.228L133.546 106.325C133.853 100.803 134.228 95.3722 134.673 90.0338C135.118 84.6954 135.494 79.2957 135.801 73.8346C135.985 70.8279 136.123 67.8749 136.215 64.9756C136.307 62.0764 136.445 59.1234 136.629 56.1167C136.507 55.8713 136.445 55.7025 136.445 55.6105C136.445 55.1809 136.606 54.8435 136.928 54.598C137.25 54.3526 137.626 54.1455 138.056 53.9767C138.485 53.808 138.938 53.693 139.413 53.6316C139.889 53.5702 140.25 53.5396 140.495 53.5396H141.553C142.505 53.6623 143.195 53.9614 143.624 54.437C144.054 54.9125 144.33 55.4801 144.453 56.1397C144.575 56.7993 144.606 57.505 144.545 58.2567C144.483 59.0083 144.453 59.7063 144.453 60.3506C144.453 64.7992 144.345 69.3323 144.131 73.9496C143.916 78.567 143.67 83.1998 143.394 87.8478C143.118 92.4959 142.865 97.144 142.635 101.792C142.405 106.44 142.29 111.035 142.29 115.575V118.797C142.29 120.239 141.883 121.19 141.07 121.65C140.257 122.11 139.13 122.34 137.688 122.34C136.43 122.34 135.325 122.064 134.374 121.512C133.423 120.96 132.948 120.055 132.948 118.797ZM153.135 103.334C153.135 101.585 153.358 99.7825 153.803 97.9263C154.248 96.0702 154.953 94.3981 155.92 92.9101C156.886 91.4221 158.106 90.2102 159.578 89.2745C161.051 88.3387 162.83 87.8708 164.917 87.8708C166.481 87.8708 168.13 88.1393 169.864 88.6762C171.597 89.2131 173.185 89.9801 174.627 90.9772C176.069 91.9743 177.242 93.1939 178.148 94.6359C179.053 96.0778 179.505 97.6886 179.505 99.468C179.505 101.616 179.114 103.656 178.332 105.589C177.549 107.522 176.452 109.247 175.041 110.766C173.63 112.285 171.981 113.481 170.094 114.356C168.207 115.23 166.159 115.667 163.95 115.667C162.14 115.667 160.56 115.337 159.21 114.678C157.86 114.018 156.733 113.136 155.828 112.032C154.923 110.927 154.248 109.623 153.803 108.12C153.358 106.617 153.135 105.021 153.135 103.334ZM159.9 103.242C159.9 103.794 159.985 104.607 160.154 105.681C160.322 106.755 160.575 107.805 160.913 108.833C161.25 109.861 161.688 110.751 162.224 111.502C162.761 112.254 163.413 112.599 164.18 112.538C165.806 112.354 167.149 111.825 168.207 110.95C169.266 110.076 170.125 109.01 170.784 107.752C171.444 106.494 171.904 105.129 172.165 103.656C172.426 102.183 172.556 100.787 172.556 99.468C172.556 97.7806 172.226 96.3693 171.567 95.2341C170.907 94.099 169.826 93.1786 168.322 92.4729C168.322 92.5343 168.353 92.5649 168.414 92.5649C168.476 92.5649 168.506 92.5343 168.506 92.4729L167.356 92.1968C167.049 92.0741 166.673 91.936 166.228 91.7826C165.783 91.6292 165.346 91.2917 164.917 90.7701C163.72 91.1997 162.792 91.7519 162.132 92.4269C161.473 93.1018 160.974 93.9225 160.637 94.889C160.299 95.8554 160.092 97.0136 160.015 98.3635C159.939 99.7135 159.9 101.34 159.9 103.242ZM188.004 100.849C188.004 99.1612 188.165 97.3587 188.487 95.4412C188.809 93.5237 189.361 91.7673 190.144 90.1719C190.926 88.5765 192.008 87.2572 193.388 86.2141C194.769 85.171 196.533 84.6494 198.681 84.6494C200.122 84.6494 201.518 84.8872 202.868 85.3627C204.218 85.8383 205.492 86.4902 206.688 87.3186C207.056 86.705 207.639 86.3292 208.437 86.1911C209.235 86.053 209.94 85.984 210.554 85.984C210.799 85.984 211.144 85.9994 211.589 86.03C212.034 86.0607 212.471 86.1528 212.901 86.3062C213.33 86.4596 213.706 86.6436 214.028 86.8584C214.351 87.0732 214.542 87.38 214.604 87.7788C214.849 89.9264 215.018 92.0664 215.11 94.1987C215.202 96.331 215.34 98.4556 215.524 100.573C215.831 104.53 216.306 108.442 216.951 112.308C217.595 116.173 217.917 120.085 217.917 124.043C217.917 125.914 217.833 127.939 217.664 130.118C217.495 132.296 217.05 134.313 216.329 136.169C215.608 138.026 214.558 139.567 213.177 140.794C211.796 142.022 209.879 142.635 207.424 142.635C205.215 142.635 203.52 142.244 202.339 141.462C201.158 140.679 200.092 139.368 199.141 137.527C199.202 136.913 199.593 136.507 200.314 136.307C201.035 136.108 201.657 136.008 202.178 136.008C202.669 136.008 203.168 136.054 203.674 136.146C204.18 136.238 204.586 136.392 204.893 136.607L206.044 137.343C207.179 135.011 207.869 132.465 208.115 129.703C208.36 126.942 208.483 124.273 208.483 121.696C208.483 119.548 208.376 117.424 208.161 115.322C207.946 113.22 207.731 111.111 207.516 108.994C205.369 112.891 202.101 114.839 197.714 114.839C195.689 114.839 194.04 114.409 192.767 113.55C191.494 112.691 190.512 111.602 189.822 110.283C189.131 108.964 188.656 107.476 188.395 105.819C188.134 104.162 188.004 102.505 188.004 100.849ZM193.664 101.263C193.664 102.03 193.695 103.019 193.756 104.231C193.818 105.443 193.979 106.632 194.24 107.798C194.5 108.964 194.876 109.968 195.367 110.812C195.858 111.656 196.548 112.078 197.438 112.078C199.125 112.078 200.46 111.418 201.442 110.099C202.424 108.78 203.198 107.207 203.766 105.382C204.333 103.556 204.786 101.669 205.123 99.7211C205.461 97.7729 205.89 96.1699 206.412 94.912C206.351 94.4825 206.32 94.0606 206.32 93.6464V92.3809C205.614 91.0616 204.586 89.9188 203.237 88.9523C201.887 87.9859 200.491 87.3339 199.049 86.9965C198.865 86.9658 198.696 86.9504 198.542 86.9504C197.683 86.9504 196.978 87.4567 196.426 88.4691C195.72 89.6963 195.168 91.1613 194.769 92.8641C194.37 94.5668 194.086 96.2466 193.917 97.9033C193.749 99.5601 193.664 100.68 193.664 101.263ZM227.336 101.355C227.336 98.5323 227.666 95.7634 228.326 93.0482C228.985 90.3329 229.545 87.6254 230.005 84.9255C230.128 84.2199 230.611 83.7827 231.455 83.614C232.299 83.4452 233.012 83.3608 233.595 83.3608C234.607 83.3608 235.42 83.5142 236.034 83.821C236.279 83.9438 236.51 84.0818 236.724 84.2352C236.939 84.3886 237.046 84.5881 237.046 84.8335C237.046 87.472 236.732 90.0492 236.103 92.5649C235.474 95.0807 235.16 97.7499 235.16 100.573C235.16 101.524 235.229 102.421 235.367 103.265C235.505 104.108 235.635 104.944 235.758 105.773L236.034 107.107C236.034 107.353 236.049 107.568 236.08 107.752C236.111 107.936 236.157 108.151 236.218 108.396C236.218 108.948 235.827 109.324 235.045 109.524C234.262 109.723 233.58 109.823 232.997 109.823C232.107 109.823 231.286 109.646 230.535 109.293C229.783 108.941 229.192 108.335 228.763 107.476L228.118 106.141C227.75 105.435 227.566 104.645 227.566 103.771C227.566 102.897 227.49 102.091 227.336 101.355ZM230.281 73.6505V72.7761C230.281 71.3341 230.642 70.0456 231.363 68.9104C232.084 67.7752 233.165 67.2076 234.607 67.2076C234.791 67.2076 234.968 67.223 235.137 67.2537C235.305 67.2843 235.482 67.2997 235.666 67.2997C236.034 67.361 236.517 67.5068 237.115 67.7369C237.714 67.967 238.013 68.3275 238.013 68.8184V68.9104C237.89 69.1558 237.813 69.409 237.783 69.6697C237.752 69.9305 237.675 70.153 237.553 70.337L237.645 70.245C237.277 71.1961 236.977 71.9631 236.747 72.546C236.517 73.1289 236.264 73.5968 235.988 73.9496C235.712 74.3025 235.367 74.5556 234.952 74.709C234.538 74.8624 233.948 74.9391 233.181 74.9391C233.058 74.9391 232.843 74.9237 232.536 74.8931C232.23 74.8624 231.9 74.801 231.547 74.709C231.194 74.6169 230.895 74.4942 230.65 74.3408C230.404 74.1874 230.281 73.9573 230.281 73.6505ZM247.432 83.2228C247.432 82.916 247.67 82.6552 248.145 82.4404C248.621 82.2257 249.188 82.0723 249.848 81.9802C250.508 81.8882 251.137 81.8115 251.735 81.7501C252.333 81.6888 252.786 81.6581 253.092 81.6581C253.215 80.8297 253.392 79.7099 253.622 78.2986C253.852 76.8873 254.136 75.3763 254.473 73.7656C254.811 72.1548 255.232 70.5365 255.739 68.9104C256.245 67.2843 256.858 65.8117 257.579 64.4924C258.3 63.1732 259.152 62.0917 260.134 61.248C261.115 60.4043 262.266 59.9824 263.585 59.9824H263.493C263.923 59.9211 264.344 59.875 264.759 59.8444C265.173 59.8137 265.595 59.7983 266.024 59.7983C267.037 59.7983 268.133 59.9978 269.315 60.3966C270.496 60.7955 271.593 61.3554 272.605 62.0764C273.618 62.7973 274.469 63.6641 275.159 64.6765C275.85 65.689 276.195 66.7628 276.195 67.8979C276.195 68.7877 275.972 69.7464 275.527 70.7742C275.083 71.802 274.308 72.3159 273.203 72.3159C272.835 72.3159 272.459 72.2239 272.076 72.0398C271.692 71.8557 271.332 71.6563 270.994 71.4415C271.117 70.7359 271.178 70.0302 271.178 69.3246C271.178 68.9564 271.163 68.6036 271.132 68.2661C271.04 67.1923 270.81 66.2489 270.442 65.4359C270.074 64.6228 269.545 63.9785 268.854 63.503C268.164 63.0274 267.343 62.851 266.392 62.9738C265.134 63.1578 264.191 63.9248 263.562 65.2748C262.933 66.6247 262.496 68.2278 262.25 70.0839C262.005 71.9401 261.852 73.8269 261.79 75.7444C261.729 77.662 261.606 79.219 261.422 80.4155C262.864 80.5382 264.084 80.5996 265.081 80.5996H268.831C269.077 80.5996 269.499 80.615 270.097 80.6456C270.695 80.6763 271.278 80.7377 271.846 80.8297C272.413 80.9218 272.92 81.0828 273.364 81.3129C273.809 81.543 274.032 81.8422 274.032 82.2103C274.032 82.5171 273.909 82.7856 273.664 83.0157C273.418 83.2458 273.119 83.4069 272.766 83.4989C272.413 83.5909 272.045 83.6523 271.662 83.683C271.278 83.7137 270.964 83.729 270.718 83.729C269.644 83.729 268.732 83.683 267.98 83.5909C267.228 83.4989 266.507 83.4145 265.817 83.3378C265.127 83.2611 264.406 83.2228 263.654 83.2228C262.902 83.2228 262.02 83.3302 261.008 83.5449C260.701 86.9504 260.456 90.3253 260.272 93.6694C260.088 97.0136 259.995 100.388 259.995 103.794C259.995 109.132 260.164 114.363 260.502 119.487C260.839 124.611 261.453 129.811 262.343 135.088C262.465 135.579 262.573 136.139 262.665 136.768C262.757 137.397 262.803 138.003 262.803 138.585C262.803 139.138 262.634 139.59 262.297 139.943C261.959 140.296 261.537 140.549 261.031 140.702C260.525 140.856 260.003 140.963 259.466 141.025C258.929 141.086 258.446 141.117 258.017 141.117C256.268 141.117 255.041 140.848 254.335 140.311C253.629 139.774 253.123 138.693 252.816 137.067C252.049 132.741 251.558 128.377 251.344 123.974C251.129 119.571 251.021 115.13 251.021 110.651C251.021 106.264 251.183 101.884 251.505 97.5121C251.827 93.1402 252.233 88.7913 252.724 84.4653C252.479 84.4653 252.057 84.4807 251.459 84.5114C250.86 84.542 250.262 84.542 249.664 84.5114C249.066 84.4807 248.544 84.3733 248.099 84.1892C247.654 84.0051 247.432 83.683 247.432 83.2228ZM281.38 92.1968C281.38 91.307 281.633 90.7241 282.139 90.448C282.645 90.1719 283.282 90.0338 284.049 90.0338C285.307 90.0338 286.266 90.2716 286.925 90.7471C287.585 91.2227 287.915 92.0587 287.915 93.2552C287.915 94.6972 288.022 96.4997 288.237 98.6627C288.452 100.826 288.766 102.927 289.18 104.967C289.594 107.008 290.085 108.764 290.653 110.237C291.221 111.709 291.811 112.446 292.425 112.446C293.56 112.446 294.565 111.571 295.439 109.823C296.313 108.074 297.081 105.926 297.74 103.38C298.4 100.833 298.967 98.0951 299.443 95.1651C299.918 92.2351 300.248 89.6196 300.432 87.3186C300.555 86.0607 300.854 85.148 301.33 84.5804C301.805 84.0128 302.672 83.729 303.93 83.729C305.372 83.729 306.423 84.3273 307.082 85.5238C307.742 86.7203 308.164 88.193 308.348 89.9418C308.501 91.4451 308.578 93.0098 308.578 94.6359V95.4182V97.259C308.578 98.4249 308.593 99.468 308.624 100.388L309.959 128.599L310.143 133.293C310.204 133.723 310.25 134.129 310.281 134.513C310.311 134.896 310.327 135.303 310.327 135.732C310.327 137.481 309.951 138.608 309.199 139.115C308.448 139.621 307.228 139.874 305.541 139.874C305.172 139.874 304.705 139.843 304.137 139.782C303.569 139.721 303.017 139.598 302.48 139.414C301.943 139.23 301.483 138.977 301.1 138.654C300.716 138.332 300.524 137.926 300.524 137.435L300.708 136.975C300.862 135.134 300.939 133.201 300.939 131.176V130.21C300.908 127.817 300.831 125.393 300.708 122.938C300.586 120.484 300.448 118.03 300.294 115.575C300.141 113.121 300.064 110.758 300.064 108.488C299.635 109.439 299.136 110.421 298.568 111.433C298.001 112.446 297.341 113.359 296.59 114.172C295.838 114.985 294.987 115.66 294.035 116.196C293.084 116.733 292.011 117.002 290.814 117.002C289.065 117.002 287.623 116.542 286.488 115.621C285.353 114.701 284.471 113.504 283.842 112.032C283.213 110.559 282.76 108.91 282.484 107.084C282.208 105.259 282.024 103.433 281.932 101.608C281.84 99.7825 281.779 98.0414 281.748 96.3846C281.717 94.7279 281.595 93.332 281.38 92.1968Z" fill="black"/>
<defs>
<clipPath id="clip0_5502_55">
<rect width="116" height="116" fill="white"/>
</clipPath>
</defs>
</svg>
