<svg width="163" height="68" viewBox="0 0 163 68" fill="none" xmlns="http://www.w3.org/2000/svg">
<g clip-path="url(#clip0_5514_1631)">
<path fill-rule="evenodd" clip-rule="evenodd" d="M27.089 11.8531C18.6737 11.8531 11.8516 18.6752 11.8516 27.0905C11.8516 35.5058 18.6737 42.328 27.089 42.328C35.5043 42.328 42.3265 35.5058 42.3265 27.0905C42.3265 18.6752 35.5043 11.8531 27.089 11.8531ZM27.089 40.6349C19.6083 40.6349 13.5446 34.5704 13.5446 27.0905C13.5446 19.6106 19.6083 13.5461 27.089 13.5461C34.5698 13.5461 40.6334 19.6106 40.6334 27.0905C40.6334 34.5704 34.5698 40.6349 27.089 40.6349Z" fill="#FFCF23"/>
<path fill-rule="evenodd" clip-rule="evenodd" d="M27.0887 16.9322C26.6206 16.9322 26.2422 17.3106 26.2422 17.7787C26.2422 18.2469 26.6206 18.6253 27.0887 18.6253C31.7632 18.6253 35.554 22.4152 35.554 27.0905C35.554 27.5587 35.9324 27.9371 36.4005 27.9371C36.8686 27.9371 37.247 27.5587 37.247 27.0905C37.247 21.4806 32.6986 16.9322 27.0887 16.9322Z" fill="#FFCF23"/>
<path fill-rule="evenodd" clip-rule="evenodd" d="M53.3313 26.2423H44.8661C44.3979 26.2423 44.0195 26.6207 44.0195 27.0888C44.0195 27.557 44.3979 27.9354 44.8661 27.9354H53.3313C53.7994 27.9354 54.1778 27.557 54.1778 27.0888C54.1778 26.6207 53.7994 26.2423 53.3313 26.2423Z" fill="#FFCF23"/>
<path fill-rule="evenodd" clip-rule="evenodd" d="M9.6988 30.8728L6.42867 31.749C5.97663 31.8709 5.70828 32.3348 5.83018 32.7868C5.95123 33.238 6.41428 33.5063 6.86717 33.3844L10.1373 32.5083C10.5885 32.3872 10.8568 31.9242 10.7358 31.4713C10.6147 31.0201 10.15 30.7517 9.6988 30.8728Z" fill="#FFCF23"/>
<path fill-rule="evenodd" clip-rule="evenodd" d="M41.7507 18.6236C41.9852 19.0291 42.5025 19.1679 42.9079 18.9334L50.2389 14.7008C50.6443 14.4671 50.7832 13.9491 50.5478 13.5444C50.315 13.1389 49.797 13.001 49.3923 13.2354L42.0614 17.4681C41.6559 17.7026 41.5179 18.2181 41.7507 18.6236Z" fill="#FFCF23"/>
<path fill-rule="evenodd" clip-rule="evenodd" d="M15.1171 39.0612C14.787 38.7302 14.2511 38.7319 13.9201 39.0612L11.5261 41.4552C11.1951 41.7862 11.196 42.3229 11.527 42.653C11.8571 42.984 12.3921 42.9832 12.7231 42.6522L15.1171 40.2582C15.4481 39.9289 15.4481 39.3922 15.1171 39.0612Z" fill="#FFCF23"/>
<path fill-rule="evenodd" clip-rule="evenodd" d="M35.5541 12.427C35.9596 12.6606 36.4768 12.5226 36.7113 12.1172L40.9439 4.78625C41.1784 4.38076 41.0396 3.86269 40.6333 3.62905C40.2286 3.39541 39.7123 3.53424 39.4778 3.93887L35.246 11.2706C35.0106 11.6761 35.1495 12.1925 35.5541 12.427Z" fill="#FFCF23"/>
<path fill-rule="evenodd" clip-rule="evenodd" d="M22.7072 43.442C22.2569 43.321 21.793 43.591 21.6702 44.0405L20.7941 47.3106C20.673 47.7635 20.9431 48.2274 21.3943 48.3485C21.8455 48.4704 22.3085 48.202 22.4296 47.7491L23.3057 44.479C23.4285 44.0295 23.1601 43.5648 22.7072 43.442Z" fill="#FFCF23"/>
<path fill-rule="evenodd" clip-rule="evenodd" d="M27.0888 10.1583C27.5578 10.1583 27.9362 9.78076 27.9371 9.31178V0.846526C27.9371 0.378397 27.5587 0 27.0888 0C26.6224 0 26.244 0.378397 26.2432 0.846526L26.244 9.31178C26.244 9.77991 26.6224 10.1583 27.0888 10.1583Z" fill="#FFCF23"/>
<path fill-rule="evenodd" clip-rule="evenodd" d="M32.5082 44.0405C32.3888 43.5902 31.9249 43.321 31.4712 43.442C31.02 43.5631 30.7534 44.0278 30.8727 44.479L31.7489 47.7491C31.8708 48.202 32.3355 48.4687 32.7876 48.3476C33.2396 48.2266 33.5063 47.7644 33.3844 47.3106L32.5082 44.0405Z" fill="#FFCF23"/>
<path fill-rule="evenodd" clip-rule="evenodd" d="M17.4699 12.1155C17.7027 12.521 18.2207 12.6598 18.6237 12.4262C19.03 12.1917 19.1697 11.6753 18.9352 11.269L14.7026 3.93804C14.4689 3.5334 13.9509 3.39457 13.5445 3.62906C13.1407 3.86185 13.0019 4.37993 13.2356 4.78457L17.4699 12.1155Z" fill="#FFCF23"/>
<path fill-rule="evenodd" clip-rule="evenodd" d="M40.2592 39.0604C39.9308 38.7302 39.3941 38.7302 39.0622 39.0604C38.7312 39.3905 38.7338 39.9272 39.0622 40.2574L41.4562 42.6513C41.788 42.9832 42.3239 42.9806 42.654 42.6505C42.985 42.3204 42.985 41.7862 42.6532 41.4544L40.2592 39.0604Z" fill="#FFCF23"/>
<path fill-rule="evenodd" clip-rule="evenodd" d="M3.93976 14.6999L11.2724 18.9317C11.6762 19.1653 12.1934 19.0274 12.4262 18.6236C12.6607 18.2181 12.5235 17.7009 12.118 17.4664L4.78629 13.2337C4.38165 12.9992 3.86357 13.1381 3.62909 13.5444C3.39714 13.9482 3.53512 14.4663 3.93976 14.6999Z" fill="#FFCF23"/>
<path fill-rule="evenodd" clip-rule="evenodd" d="M44.0423 32.5066L47.3124 33.3827C47.7653 33.5055 48.2283 33.2337 48.3494 32.7825C48.4713 32.3322 48.2038 31.8691 47.7509 31.7472L44.4808 30.8711C44.0313 30.7483 43.5657 31.0175 43.4438 31.4696C43.3219 31.9216 43.5928 32.3847 44.0423 32.5066Z" fill="#FFCF23"/>
<path fill-rule="evenodd" clip-rule="evenodd" d="M10.1583 27.0888C10.1592 26.6198 9.78161 26.2423 9.31348 26.2406L0.846526 26.2423C0.379244 26.2423 0 26.619 0 27.0888C0.000846526 27.5553 0.379244 27.9353 0.847372 27.9353L9.31348 27.9337C9.77991 27.9337 10.1592 27.5561 10.1583 27.0888Z" fill="#FFCF23"/>
<path fill-rule="evenodd" clip-rule="evenodd" d="M44.4806 23.304L47.7507 22.4279C48.2036 22.3068 48.4703 21.8412 48.3484 21.3892C48.2282 20.9397 47.766 20.6713 47.3122 20.7924L44.0421 21.6685C43.5909 21.7879 43.3225 22.2535 43.4436 22.7055C43.563 23.1576 44.0294 23.4234 44.4806 23.304Z" fill="#FFCF23"/>
<path fill-rule="evenodd" clip-rule="evenodd" d="M12.4272 35.5541C12.1944 35.1478 11.6772 35.0089 11.2717 35.2426L3.93991 39.4769C3.53527 39.7105 3.39475 40.2269 3.62924 40.6332C3.86373 41.037 4.3818 41.1759 4.78644 40.9422L12.1174 36.7079C12.5211 36.4751 12.6617 35.9596 12.4272 35.5541Z" fill="#FFCF23"/>
<path fill-rule="evenodd" clip-rule="evenodd" d="M39.0622 15.1156C39.3915 15.4474 39.9274 15.444 40.2592 15.1156L42.6532 12.7216C42.985 12.3898 42.9833 11.8548 42.6515 11.5238C42.323 11.1936 41.7872 11.1928 41.4562 11.5246L39.0622 13.9186C38.7304 14.247 38.7321 14.7854 39.0622 15.1156Z" fill="#FFCF23"/>
<path fill-rule="evenodd" clip-rule="evenodd" d="M18.6234 41.7506C18.2179 41.5162 17.7024 41.655 17.4679 42.0588L13.2352 49.3922C13.0024 49.7969 13.1379 50.3133 13.5442 50.5477C13.9497 50.7797 14.4669 50.6409 14.7014 50.2371L18.9324 42.9045C19.166 42.5015 19.0297 41.9851 18.6234 41.7506Z" fill="#FFCF23"/>
<path fill-rule="evenodd" clip-rule="evenodd" d="M31.472 10.734C31.9215 10.8567 32.3845 10.585 32.509 10.1355L33.3851 6.86534C33.5062 6.41245 33.2361 5.94855 32.7849 5.82834C32.3354 5.70644 31.8707 5.97395 31.7496 6.42684L30.8735 9.69697C30.749 10.1465 31.0208 10.6121 31.472 10.734Z" fill="#FFCF23"/>
<path fill-rule="evenodd" clip-rule="evenodd" d="M27.0887 44.0194C26.6206 44.0177 26.2439 44.3969 26.2422 44.8642L26.2439 53.3328C26.2439 53.7984 26.6189 54.1777 27.0887 54.1777C27.5568 54.1777 27.9352 53.7976 27.9361 53.3311L27.9335 44.8642C27.9335 44.3978 27.5585 44.0194 27.0887 44.0194Z" fill="#FFCF23"/>
<path fill-rule="evenodd" clip-rule="evenodd" d="M21.6709 10.1355C21.7886 10.5867 22.2559 10.855 22.7079 10.734C23.1583 10.6146 23.4241 10.149 23.3064 9.69696L22.4303 6.42683C22.3075 5.97394 21.8436 5.70644 21.3916 5.82918C20.9421 5.94939 20.672 6.41159 20.7948 6.86533L21.6709 10.1355Z" fill="#FFCF23"/>
<path fill-rule="evenodd" clip-rule="evenodd" d="M36.708 42.0613C36.4752 41.6567 35.9605 41.5162 35.5542 41.7523C35.1487 41.9843 35.0116 42.5015 35.2435 42.907L39.4795 50.2388C39.7123 50.6434 40.227 50.7839 40.6334 50.5486C41.0388 50.3141 41.1768 49.796 40.944 49.3914L36.708 42.0613Z" fill="#FFCF23"/>
<path fill-rule="evenodd" clip-rule="evenodd" d="M13.9193 15.1156C14.2469 15.4491 14.7853 15.4457 15.1163 15.1156C15.4473 14.7871 15.4439 14.2513 15.1163 13.9186L12.7223 11.5246C12.3897 11.1928 11.8547 11.1945 11.5245 11.5263C11.1944 11.8548 11.1927 12.3906 11.5254 12.7216L13.9193 15.1156Z" fill="#FFCF23"/>
<path fill-rule="evenodd" clip-rule="evenodd" d="M50.2397 39.476L42.9063 35.2459C42.5016 35.0123 41.9861 35.1477 41.7524 35.5558C41.5171 35.9596 41.6576 36.4751 42.0606 36.7104L49.3949 40.9422C49.7987 41.175 50.3142 41.0396 50.5487 40.6332C50.7815 40.2277 50.6427 39.7105 50.2397 39.476Z" fill="#FFCF23"/>
<path fill-rule="evenodd" clip-rule="evenodd" d="M10.1363 21.6702L6.86533 20.7932C6.4116 20.6713 5.94855 20.9414 5.82834 21.3926C5.70644 21.8421 5.9731 22.3068 6.42683 22.4296L9.69696 23.3049C10.1465 23.4285 10.6121 23.1567 10.734 22.7064C10.8567 22.2577 10.5858 21.7947 10.1363 21.6702Z" fill="#FFCF23"/>
</g>
<path d="M43.7656 41.5988C43.7656 40.5958 43.8122 39.2918 43.9053 37.6869C43.9985 36.0821 44.1095 34.427 44.2385 32.7219C44.3675 31.0167 44.5287 29.4011 44.7221 27.875C44.9155 26.349 45.1269 25.1775 45.3562 24.3608C45.4421 24.0025 45.6463 23.7876 45.9687 23.716C46.2911 23.6443 46.6171 23.6085 46.9467 23.6085C47.3909 23.6085 47.7742 23.6873 48.0966 23.8449C48.419 24.0025 48.5802 24.3464 48.5802 24.8766C48.5802 27.4845 48.419 30.096 48.0966 32.7111C47.7742 35.3262 47.5987 37.9377 47.57 40.5456C48.0142 39.8721 48.5874 39.367 49.2895 39.0303C49.9917 38.6936 50.7368 38.5252 51.5249 38.5252C52.6139 38.5252 53.5525 38.7473 54.3406 39.1915C55.1287 39.6357 55.7663 40.2089 56.2535 40.911C56.7407 41.6131 57.1025 42.4263 57.339 43.3506C57.5754 44.2748 57.6936 45.2169 57.6936 46.177C57.6936 46.7072 57.6399 47.3699 57.5324 48.1652C57.4249 48.9604 57.2637 49.7987 57.0488 50.68C56.8339 51.5612 56.5616 52.4353 56.232 53.3022C55.9025 54.1691 55.512 54.9465 55.0606 55.6343C54.6093 56.3221 54.0898 56.8773 53.5023 57.3C52.9148 57.7228 52.27 57.9341 51.5679 57.9341C51.4246 57.9341 51.2347 57.9126 50.9983 57.8696C50.7619 57.8266 50.5254 57.7622 50.289 57.6762C50.0526 57.5902 49.8555 57.4792 49.6979 57.343C49.5403 57.2069 49.4615 57.0385 49.4615 56.8379C49.4615 56.6087 49.6012 56.4475 49.8806 56.3543C50.16 56.2612 50.3857 56.2146 50.5577 56.2146C51.2025 55.928 51.7757 55.3298 52.2772 54.4199C52.7787 53.51 53.1978 52.5105 53.5346 51.4215C53.8713 50.3325 54.1256 49.2542 54.2976 48.1867C54.4695 47.1191 54.5555 46.2486 54.5555 45.5752C54.5555 45.1883 54.4982 44.6724 54.3836 44.0276C54.2689 43.3828 54.0934 42.7452 53.857 42.1147C53.6205 41.4842 53.2981 40.9397 52.8898 40.4811C52.4814 40.0226 51.9978 39.7933 51.4389 39.7933C50.7654 39.7933 50.2281 40.1408 49.8269 40.8358C49.4257 41.5308 49.1104 42.3404 48.8812 43.2646C48.6519 44.1888 48.4978 45.1417 48.419 46.1233C48.3402 47.1048 48.3008 47.875 48.3008 48.4338C48.3008 48.7921 48.3617 49.1467 48.4835 49.4978C48.6053 49.8489 48.745 50.1999 48.9026 50.551C49.0603 50.9021 49.2 51.2603 49.3218 51.6257C49.4436 51.9911 49.5045 52.3529 49.5045 52.7111C49.5045 52.8831 49.4292 53.0264 49.2788 53.141C49.1283 53.2556 48.9528 53.3488 48.7522 53.4204C48.5516 53.4921 48.3402 53.5386 48.1181 53.5601C47.896 53.5816 47.7277 53.5924 47.613 53.5924C46.7963 53.5924 46.2302 53.3989 45.915 53.012C45.5998 52.6251 45.3275 52.0806 45.0982 51.3785C44.5967 49.788 44.2492 48.1723 44.0558 46.5316C43.8623 44.891 43.7656 43.2467 43.7656 41.5988ZM62.0928 55.4838C62.0928 55.0683 62.1107 54.6312 62.1465 54.1727C62.1823 53.7142 62.2146 53.2843 62.2432 52.8831L62.3722 49.659C62.5155 47.0797 62.691 44.5435 62.8988 42.0502C63.1066 39.5569 63.2821 37.035 63.4254 34.4844C63.5114 33.0801 63.5758 31.7009 63.6188 30.3468C63.6618 28.9927 63.7263 27.6135 63.8123 26.2092C63.7549 26.0946 63.7263 26.0158 63.7263 25.9728C63.7263 25.7722 63.8015 25.6146 63.952 25.4999C64.1024 25.3853 64.278 25.2886 64.4786 25.2098C64.6792 25.131 64.8905 25.0772 65.1126 25.0486C65.3347 25.0199 65.5031 25.0056 65.6177 25.0056H66.1121C66.5563 25.0629 66.8787 25.2026 67.0793 25.4247C67.2799 25.6468 67.4089 25.9119 67.4662 26.22C67.5235 26.5281 67.5379 26.8576 67.5092 27.2087C67.4805 27.5598 67.4662 27.8858 67.4662 28.1867C67.4662 30.2644 67.4161 32.3815 67.3158 34.5381C67.2155 36.6946 67.1008 38.8584 66.9719 41.0292C66.8429 43.2001 66.7247 45.371 66.6172 47.5419C66.5097 49.7127 66.456 51.8585 66.456 53.9793V55.4838C66.456 56.1573 66.2661 56.6015 65.8864 56.8164C65.5067 57.0314 64.9801 57.1388 64.3066 57.1388C63.7191 57.1388 63.2033 57.0099 62.7591 56.752C62.3149 56.494 62.0928 56.0713 62.0928 55.4838ZM71.5215 48.2619C71.5215 47.4451 71.6253 46.6033 71.8331 45.7364C72.0409 44.8695 72.3705 44.0885 72.8218 43.3935C73.2732 42.6986 73.8428 42.1326 74.5306 41.6955C75.2184 41.2585 76.0495 41.04 77.0239 41.04C77.7547 41.04 78.5249 41.1654 79.3345 41.4161C80.1441 41.6669 80.8856 42.0251 81.5591 42.4908C82.2325 42.9565 82.7806 43.5261 83.2033 44.1996C83.6261 44.873 83.8374 45.6253 83.8374 46.4564C83.8374 47.4595 83.6547 48.4124 83.2893 49.3151C82.9239 50.2178 82.4117 51.0239 81.7525 51.7332C81.0934 52.4424 80.3232 53.0013 79.4419 53.4097C78.5607 53.8181 77.6042 54.0222 76.5725 54.0222C75.7271 54.0222 74.9891 53.8682 74.3586 53.5601C73.7281 53.252 73.2016 52.8401 72.7788 52.3242C72.3561 51.8084 72.0409 51.1994 71.8331 50.4973C71.6253 49.7951 71.5215 49.05 71.5215 48.2619ZM74.681 48.2189C74.681 48.4768 74.7204 48.8566 74.7993 49.3581C74.8781 49.8596 74.9963 50.3504 75.1539 50.8304C75.3115 51.3104 75.5157 51.726 75.7665 52.0771C76.0172 52.4281 76.3217 52.5893 76.68 52.5607C77.4394 52.4747 78.0663 52.2275 78.5607 51.8191C79.055 51.4107 79.4563 50.9128 79.7643 50.3253C80.0724 49.7378 80.2873 49.1002 80.4091 48.4124C80.5309 47.7246 80.5918 47.0726 80.5918 46.4564C80.5918 45.6683 80.4378 45.0092 80.1297 44.479C79.8216 43.9488 79.3165 43.5189 78.6144 43.1894C78.6144 43.218 78.6287 43.2323 78.6574 43.2323C78.6861 43.2323 78.7004 43.218 78.7004 43.1894L78.163 43.0604C78.0197 43.0031 77.8442 42.9386 77.6364 42.867C77.4287 42.7953 77.2245 42.6377 77.0239 42.3941C76.465 42.5947 76.0316 42.8526 75.7235 43.1679C75.4154 43.4831 75.1826 43.8664 75.0249 44.3178C74.8673 44.7692 74.7706 45.3101 74.7348 45.9406C74.699 46.5711 74.681 47.3305 74.681 48.2189ZM87.8067 47.1012C87.8067 46.3131 87.8819 45.4713 88.0324 44.5757C88.1828 43.6801 88.4407 42.8598 88.8061 42.1147C89.1715 41.3695 89.6766 40.7534 90.3215 40.2662C90.9663 39.779 91.7902 39.5354 92.7932 39.5354C93.4667 39.5354 94.1187 39.6465 94.7492 39.8686C95.3797 40.0907 95.9743 40.3952 96.5332 40.782C96.7051 40.4955 96.9774 40.3199 97.3499 40.2555C97.7225 40.191 98.0521 40.1587 98.3386 40.1587C98.4533 40.1587 98.6145 40.1659 98.8223 40.1802C99.03 40.1946 99.2342 40.2375 99.4348 40.3092C99.6354 40.3808 99.811 40.4668 99.9614 40.5671C100.112 40.6674 100.201 40.8107 100.23 40.997C100.345 42 100.424 42.9995 100.467 43.9954C100.51 44.9913 100.574 45.9836 100.66 46.9723C100.803 48.8207 101.025 50.6477 101.326 52.4532C101.627 54.2587 101.778 56.0856 101.778 57.9341C101.778 58.8082 101.738 59.7539 101.659 60.7713C101.581 61.7887 101.373 62.7308 101.036 63.5977C100.699 64.4647 100.209 65.1847 99.5638 65.7579C98.919 66.331 98.0234 66.6176 96.8771 66.6176C95.8454 66.6176 95.0537 66.4349 94.502 66.0695C93.9503 65.7041 93.4524 65.0916 93.0082 64.2318C93.0368 63.9452 93.2195 63.7554 93.5563 63.6622C93.893 63.5691 94.1832 63.5225 94.4268 63.5225C94.656 63.5225 94.8889 63.544 95.1253 63.587C95.3618 63.63 95.5516 63.7016 95.6949 63.8019L96.2323 64.1458C96.7624 63.0568 97.0848 61.8675 97.1995 60.5779C97.3141 59.2882 97.3714 58.0416 97.3714 56.8379C97.3714 55.8349 97.3213 54.8426 97.221 53.861C97.1207 52.8795 97.0204 51.8944 96.9201 50.9056C95.917 52.7254 94.3909 53.6354 92.3419 53.6354C91.3961 53.6354 90.6259 53.4347 90.0313 53.0335C89.4366 52.6323 88.9781 52.1236 88.6557 51.5075C88.3333 50.8913 88.1112 50.1963 87.9894 49.4226C87.8676 48.6488 87.8067 47.875 87.8067 47.1012ZM90.4504 47.2947C90.4504 47.6529 90.4647 48.115 90.4934 48.681C90.5221 49.247 90.5973 49.8023 90.7191 50.3468C90.8409 50.8913 91.0164 51.3606 91.2457 51.7546C91.475 52.1487 91.7974 52.3457 92.2129 52.3457C93.001 52.3457 93.6243 52.0376 94.0829 51.4215C94.5414 50.8053 94.9032 50.071 95.1683 49.2184C95.4334 48.3658 95.6448 47.4845 95.8024 46.5746C95.96 45.6647 96.1606 44.916 96.4042 44.3285C96.3755 44.1279 96.3612 43.9309 96.3612 43.7374V43.1464C96.0316 42.5302 95.5516 41.9965 94.9211 41.5451C94.2906 41.0937 93.6387 40.7892 92.9652 40.6316C92.8792 40.6173 92.8004 40.6101 92.7288 40.6101C92.3275 40.6101 91.998 40.8465 91.74 41.3194C91.4105 41.8926 91.1525 42.5768 90.9663 43.3721C90.78 44.1673 90.6474 44.9519 90.5686 45.7256C90.4898 46.4994 90.4504 47.0224 90.4504 47.2947ZM106.177 47.3377C106.177 46.0194 106.331 44.7262 106.639 43.458C106.947 42.1899 107.209 40.9253 107.423 39.6644C107.481 39.3348 107.706 39.1306 108.1 39.0518C108.495 38.973 108.828 38.9336 109.1 38.9336C109.573 38.9336 109.953 39.0052 110.239 39.1485C110.354 39.2058 110.461 39.2703 110.562 39.342C110.662 39.4136 110.712 39.5068 110.712 39.6214C110.712 40.8537 110.565 42.0574 110.271 43.2323C109.978 44.4073 109.831 45.654 109.831 46.9723C109.831 47.4165 109.863 47.8356 109.927 48.2297C109.992 48.6237 110.053 49.0142 110.11 49.4011L110.239 50.0244C110.239 50.139 110.246 50.2393 110.261 50.3253C110.275 50.4113 110.296 50.5116 110.325 50.6262C110.325 50.8841 110.142 51.0597 109.777 51.1528C109.412 51.246 109.093 51.2925 108.821 51.2925C108.405 51.2925 108.022 51.2101 107.671 51.0453C107.32 50.8806 107.044 50.5976 106.843 50.1963L106.542 49.573C106.37 49.2435 106.284 48.8745 106.284 48.4661C106.284 48.0577 106.248 47.6816 106.177 47.3377ZM107.552 34.3984V33.99C107.552 33.3165 107.721 32.7147 108.058 32.1845C108.394 31.6543 108.899 31.3893 109.573 31.3893C109.659 31.3893 109.741 31.3964 109.82 31.4107C109.899 31.4251 109.981 31.4322 110.067 31.4322C110.239 31.4609 110.465 31.529 110.744 31.6364C111.024 31.7439 111.163 31.9123 111.163 32.1415V32.1845C111.106 32.2992 111.07 32.4174 111.056 32.5392C111.042 32.661 111.006 32.7649 110.948 32.8508L110.991 32.8078C110.819 33.252 110.68 33.6103 110.572 33.8825C110.465 34.1548 110.347 34.3733 110.218 34.5381C110.089 34.7029 109.927 34.8211 109.734 34.8927C109.541 34.9644 109.265 35.0002 108.907 35.0002C108.849 35.0002 108.749 34.993 108.606 34.9787C108.462 34.9644 108.308 34.9357 108.143 34.8927C107.979 34.8498 107.839 34.7924 107.724 34.7208C107.61 34.6491 107.552 34.5417 107.552 34.3984ZM115.563 38.8691C115.563 38.7258 115.674 38.604 115.896 38.5037C116.118 38.4034 116.383 38.3318 116.691 38.2888C116.999 38.2458 117.293 38.21 117.572 38.1813C117.852 38.1526 118.063 38.1383 118.206 38.1383C118.264 37.7514 118.346 37.2284 118.453 36.5693C118.561 35.9101 118.693 35.2044 118.851 34.4521C119.009 33.6998 119.206 32.944 119.442 32.1845C119.679 31.4251 119.965 30.7373 120.302 30.1211C120.639 29.505 121.036 28.9999 121.495 28.6058C121.953 28.2117 122.491 28.0147 123.107 28.0147H123.064C123.264 27.9861 123.461 27.9646 123.655 27.9502C123.848 27.9359 124.045 27.9287 124.246 27.9287C124.719 27.9287 125.231 28.0219 125.783 28.2082C126.334 28.3944 126.847 28.656 127.32 28.9927C127.792 29.3294 128.19 29.7342 128.513 30.2071C128.835 30.68 128.996 31.1815 128.996 31.7117C128.996 32.1272 128.892 32.575 128.684 33.055C128.477 33.5351 128.115 33.7751 127.599 33.7751C127.427 33.7751 127.252 33.7321 127.072 33.6461C126.893 33.5601 126.725 33.467 126.567 33.3667C126.625 33.0371 126.653 32.7075 126.653 32.378C126.653 32.206 126.646 32.0412 126.632 31.8836C126.589 31.3821 126.481 30.9415 126.309 30.5617C126.137 30.182 125.89 29.8811 125.568 29.659C125.245 29.4369 124.862 29.3545 124.418 29.4118C123.83 29.4978 123.39 29.856 123.096 30.4865C122.802 31.117 122.598 31.8657 122.484 32.7326C122.369 33.5995 122.297 34.4808 122.269 35.3764C122.24 36.2719 122.183 36.9991 122.097 37.558C122.77 37.6153 123.34 37.644 123.805 37.644H125.557C125.672 37.644 125.869 37.6511 126.148 37.6654C126.428 37.6798 126.7 37.7084 126.965 37.7514C127.23 37.7944 127.466 37.8696 127.674 37.9771C127.882 38.0846 127.986 38.2243 127.986 38.3962C127.986 38.5395 127.929 38.6649 127.814 38.7724C127.699 38.8798 127.56 38.9551 127.395 38.9981C127.23 39.0411 127.058 39.0697 126.879 39.084C126.7 39.0984 126.553 39.1055 126.438 39.1055C125.937 39.1055 125.511 39.084 125.159 39.0411C124.808 38.9981 124.472 38.9587 124.149 38.9228C123.827 38.887 123.49 38.8691 123.139 38.8691C122.788 38.8691 122.376 38.9193 121.903 39.0196C121.76 40.6101 121.645 42.1863 121.559 43.7482C121.473 45.3101 121.43 46.8863 121.43 48.4768C121.43 50.9701 121.509 53.4132 121.667 55.8062C121.824 58.1992 122.111 60.628 122.527 63.0926C122.584 63.3219 122.634 63.5834 122.677 63.8772C122.72 64.1709 122.741 64.4539 122.741 64.7262C122.741 64.9841 122.663 65.1954 122.505 65.3602C122.347 65.525 122.15 65.6432 121.914 65.7149C121.677 65.7865 121.434 65.8367 121.183 65.8653C120.932 65.894 120.707 65.9083 120.506 65.9083C119.689 65.9083 119.116 65.7829 118.787 65.5322C118.457 65.2814 118.221 64.7763 118.077 64.0169C117.719 61.9964 117.49 59.9581 117.389 57.9019C117.289 55.8456 117.239 53.7715 117.239 51.6794C117.239 49.6303 117.314 47.5848 117.465 45.5429C117.615 43.501 117.805 41.4699 118.034 39.4494C117.92 39.4494 117.723 39.4566 117.443 39.4709C117.164 39.4853 116.884 39.4853 116.605 39.4709C116.326 39.4566 116.082 39.4064 115.874 39.3205C115.666 39.2345 115.563 39.084 115.563 38.8691ZM131.418 43.0604C131.418 42.6448 131.536 42.3726 131.772 42.2436C132.009 42.1147 132.306 42.0502 132.664 42.0502C133.252 42.0502 133.7 42.1612 134.008 42.3833C134.316 42.6054 134.47 42.9959 134.47 43.5548C134.47 44.2282 134.52 45.0701 134.62 46.0803C134.721 47.0905 134.868 48.072 135.061 49.0249C135.255 49.9778 135.484 50.7982 135.749 51.486C136.014 52.1738 136.29 52.5177 136.576 52.5177C137.107 52.5177 137.576 52.1093 137.984 51.2925C138.393 50.4758 138.751 49.4727 139.059 48.2834C139.367 47.0941 139.632 45.8152 139.854 44.4467C140.076 43.0783 140.23 41.8567 140.316 40.782C140.374 40.1946 140.513 39.7683 140.735 39.5032C140.958 39.2381 141.362 39.1055 141.95 39.1055C142.623 39.1055 143.114 39.385 143.422 39.9438C143.73 40.5026 143.927 41.1904 144.013 42.0072C144.085 42.7093 144.121 43.4401 144.121 44.1996V44.565V45.4247C144.121 45.9692 144.128 46.4564 144.142 46.8863L144.766 60.062L144.851 62.2544C144.88 62.455 144.902 62.6448 144.916 62.824C144.93 63.0031 144.937 63.1929 144.937 63.3935C144.937 64.2103 144.762 64.7369 144.411 64.9733C144.06 65.2098 143.49 65.328 142.702 65.328C142.53 65.328 142.312 65.3137 142.047 65.285C141.781 65.2563 141.524 65.199 141.273 65.1131C141.022 65.0271 140.807 64.9089 140.628 64.7584C140.449 64.6079 140.359 64.4181 140.359 64.1888L140.445 63.9739C140.517 63.1141 140.553 62.2114 140.553 61.2657V60.8143C140.538 59.6966 140.503 58.5646 140.445 57.4183C140.388 56.2719 140.323 55.1256 140.252 53.9793C140.18 52.8329 140.144 51.7296 140.144 50.6692C139.944 51.1134 139.711 51.5719 139.446 52.0448C139.181 52.5177 138.873 52.944 138.522 53.3237C138.17 53.7034 137.773 54.0187 137.329 54.2694C136.884 54.5202 136.383 54.6456 135.824 54.6456C135.007 54.6456 134.334 54.4306 133.804 54.0007C133.273 53.5709 132.862 53.012 132.568 52.3242C132.274 51.6364 132.063 50.8662 131.934 50.0136C131.805 49.1611 131.719 48.3085 131.676 47.4559C131.633 46.6033 131.604 45.7901 131.59 45.0163C131.575 44.2426 131.518 43.5906 131.418 43.0604Z" fill="black"/>
<defs>
<clipPath id="clip0_5514_1631">
<rect width="54.1777" height="54.1777" fill="white"/>
</clipPath>
</defs>
</svg>
