<svg width="145" height="145" viewBox="0 0 145 145" fill="none" xmlns="http://www.w3.org/2000/svg">
<g clip-path="url(#clip0_5583_177)">
<g clip-path="url(#clip1_5583_177)">
<path fill-rule="evenodd" clip-rule="evenodd" d="M75 32.3766C66.9229 32.3766 60.375 38.9245 60.375 47.0016C60.375 55.0786 66.9229 61.6266 75 61.6266C83.0771 61.6266 89.625 55.0786 89.625 47.0016C89.625 38.9245 83.0771 32.3766 75 32.3766ZM75 60.0016C67.8199 60.0016 62 54.1808 62 47.0016C62 39.8223 67.8199 34.0016 75 34.0016C82.1801 34.0016 88 39.8223 88 47.0016C88 54.1808 82.1801 60.0016 75 60.0016Z" fill="#FFCF23"/>
<path fill-rule="evenodd" clip-rule="evenodd" d="M75 37.2516C74.5507 37.2516 74.1875 37.6148 74.1875 38.0641C74.1875 38.5134 74.5507 38.8766 75 38.8766C79.4866 38.8766 83.125 42.5141 83.125 47.0016C83.125 47.4509 83.4882 47.8141 83.9375 47.8141C84.3868 47.8141 84.75 47.4509 84.75 47.0016C84.75 41.6171 80.3844 37.2516 75 37.2516Z" fill="#FFCF23"/>
<path fill-rule="evenodd" clip-rule="evenodd" d="M100.188 46.1875H92.0625C91.6132 46.1875 91.25 46.5507 91.25 47C91.25 47.4493 91.6132 47.8125 92.0625 47.8125H100.188C100.637 47.8125 101 47.4493 101 47C101 46.5507 100.637 46.1875 100.188 46.1875Z" fill="#FFCF23"/>
<path fill-rule="evenodd" clip-rule="evenodd" d="M58.3087 50.6319L55.17 51.4728C54.7362 51.5898 54.4786 52.0351 54.5956 52.4689C54.7118 52.902 55.1562 53.1596 55.5909 53.0426L58.7296 52.2016C59.1627 52.0855 59.4202 51.641 59.304 51.2063C59.1878 50.7733 58.7418 50.5157 58.3087 50.6319Z" fill="#FFCF23"/>
<path fill-rule="evenodd" clip-rule="evenodd" d="M89.0726 38.8749C89.2977 39.2641 89.7941 39.3974 90.1833 39.1723L97.2196 35.1098C97.6087 34.8856 97.742 34.3883 97.5161 33.9999C97.2927 33.6108 96.7954 33.4783 96.4071 33.7034L89.3708 37.7659C88.9816 37.9909 88.8492 38.4858 89.0726 38.8749Z" fill="#FFCF23"/>
<path fill-rule="evenodd" clip-rule="evenodd" d="M63.5097 58.4912C63.1928 58.1735 62.6785 58.1751 62.3608 58.4912L60.0631 60.7889C59.7454 61.1066 59.7462 61.6218 60.0639 61.9386C60.3807 62.2563 60.8942 62.2555 61.2119 61.9378L63.5097 59.6401C63.8274 59.324 63.8274 58.8089 63.5097 58.4912Z" fill="#FFCF23"/>
<path fill-rule="evenodd" clip-rule="evenodd" d="M83.125 32.9275C83.5142 33.1517 84.0106 33.0193 84.2357 32.6301L88.2982 25.5938C88.5233 25.2047 88.39 24.7074 88 24.4832C87.6116 24.2589 87.116 24.3922 86.891 24.7805L82.8293 31.8176C82.6034 32.2068 82.7366 32.7024 83.125 32.9275Z" fill="#FFCF23"/>
<path fill-rule="evenodd" clip-rule="evenodd" d="M70.7944 62.6959C70.3622 62.5797 69.9169 62.8389 69.7991 63.2703L68.9582 66.409C68.842 66.8437 69.1012 67.2889 69.5343 67.4051C69.9673 67.5221 70.4118 67.2646 70.5279 66.8299L71.3689 63.6912C71.4867 63.2597 71.2291 62.8137 70.7944 62.6959Z" fill="#FFCF23"/>
<path fill-rule="evenodd" clip-rule="evenodd" d="M74.9999 30.75C75.45 30.75 75.8132 30.3876 75.814 29.9375V21.8125C75.814 21.3632 75.4509 21 74.9999 21C74.5522 21 74.189 21.3632 74.1882 21.8125L74.189 29.9375C74.189 30.3868 74.5522 30.75 74.9999 30.75Z" fill="#FFCF23"/>
<path fill-rule="evenodd" clip-rule="evenodd" d="M80.2016 63.2704C80.087 62.8381 79.6418 62.5797 79.2063 62.6959C78.7732 62.8121 78.5173 63.2582 78.6318 63.6912L79.4728 66.8299C79.5898 67.2646 80.0358 67.5205 80.4697 67.4044C80.9036 67.2882 81.1595 66.8445 81.0425 66.409L80.2016 63.2704Z" fill="#FFCF23"/>
<path fill-rule="evenodd" clip-rule="evenodd" d="M65.7675 32.6286C65.991 33.0177 66.4882 33.151 66.875 32.9267C67.265 32.7017 67.399 32.2061 67.174 31.8161L63.1115 24.7798C62.8872 24.3914 62.39 24.2582 62 24.4832C61.6124 24.7067 61.4792 25.2039 61.7034 25.5923L65.7675 32.6286Z" fill="#FFCF23"/>
<path fill-rule="evenodd" clip-rule="evenodd" d="M87.6409 58.4903C87.3256 58.1735 86.8105 58.1735 86.492 58.4903C86.1743 58.8072 86.1767 59.3223 86.492 59.6392L88.7897 61.937C89.1082 62.2555 89.6226 62.253 89.9394 61.9362C90.2571 61.6193 90.2571 61.1066 89.9386 60.7881L87.6409 58.4903Z" fill="#FFCF23"/>
<path fill-rule="evenodd" clip-rule="evenodd" d="M52.7814 35.1091L59.8193 39.1707C60.2068 39.395 60.7033 39.2626 60.9267 38.875C61.1518 38.4858 61.0201 37.9894 60.631 37.7643L53.5939 33.7018C53.2055 33.4767 52.7083 33.61 52.4832 34C52.2606 34.3876 52.393 34.8848 52.7814 35.1091Z" fill="#FFCF23"/>
<path fill-rule="evenodd" clip-rule="evenodd" d="M91.2719 52.2001L94.4106 53.041C94.8453 53.1588 95.2897 52.898 95.4059 52.4649C95.5229 52.0327 95.2662 51.5882 94.8315 51.4712L91.6928 50.6303C91.2614 50.5125 90.8145 50.7709 90.6975 51.2047C90.5805 51.6386 90.8405 52.0831 91.2719 52.2001Z" fill="#FFCF23"/>
<path fill-rule="evenodd" clip-rule="evenodd" d="M58.75 47C58.7508 46.5499 58.3884 46.1875 57.9391 46.1859L49.8125 46.1875C49.364 46.1875 49 46.5491 49 47C49.0008 47.4477 49.364 47.8125 49.8133 47.8125L57.9391 47.8109C58.3868 47.8109 58.7508 47.4485 58.75 47Z" fill="#FFCF23"/>
<path fill-rule="evenodd" clip-rule="evenodd" d="M91.6929 43.3673L94.8316 42.5264C95.2663 42.4102 95.5222 41.9633 95.4052 41.5294C95.2898 41.098 94.8462 40.8404 94.4107 40.9566L91.272 41.7975C90.8389 41.9121 90.5814 42.359 90.6976 42.7929C90.8121 43.2267 91.2598 43.4819 91.6929 43.3673Z" fill="#FFCF23"/>
<path fill-rule="evenodd" clip-rule="evenodd" d="M60.9274 55.125C60.7039 54.735 60.2075 54.6017 59.8183 54.826L52.7813 58.8901C52.3929 59.1144 52.258 59.61 52.4831 60C52.7081 60.3876 53.2054 60.5208 53.5938 60.2966L60.63 56.2324C61.0176 56.009 61.1524 55.5142 60.9274 55.125Z" fill="#FFCF23"/>
<path fill-rule="evenodd" clip-rule="evenodd" d="M86.4919 35.5081C86.808 35.8266 87.3223 35.8233 87.6408 35.5081L89.9386 33.2103C90.2571 32.8918 90.2554 32.3783 89.9369 32.0606C89.6217 31.7437 89.1074 31.7429 88.7897 32.0614L86.4919 34.3592C86.1734 34.6744 86.1751 35.1912 86.4919 35.5081Z" fill="#FFCF23"/>
<path fill-rule="evenodd" clip-rule="evenodd" d="M66.8749 61.0725C66.4857 60.8474 65.9909 60.9807 65.7658 61.3683L61.7033 68.4069C61.4799 68.7953 61.6099 69.2909 61.9999 69.516C62.3891 69.7386 62.8855 69.6054 63.1106 69.2178L67.1715 62.1799C67.3957 61.7932 67.2649 61.2976 66.8749 61.0725Z" fill="#FFCF23"/>
<path fill-rule="evenodd" clip-rule="evenodd" d="M79.2072 31.3025C79.6386 31.4203 80.0831 31.1595 80.2025 30.7281L81.0434 27.5894C81.1596 27.1547 80.9004 26.7094 80.4674 26.5941C80.0359 26.4771 79.5899 26.7338 79.4737 27.1685L78.6328 30.3072C78.5133 30.7386 78.7741 31.1855 79.2072 31.3025Z" fill="#FFCF23"/>
<path fill-rule="evenodd" clip-rule="evenodd" d="M75 63.25C74.5507 63.2484 74.1891 63.6124 74.1875 64.0609L74.1891 72.1891C74.1891 72.636 74.5491 73 75 73C75.4493 73 75.8125 72.6352 75.8133 72.1875L75.8109 64.0609C75.8109 63.6132 75.4509 63.25 75 63.25Z" fill="#FFCF23"/>
<path fill-rule="evenodd" clip-rule="evenodd" d="M69.8 30.7281C69.913 31.1611 70.3615 31.4187 70.7954 31.3025C71.2276 31.188 71.4827 30.7411 71.3698 30.3072L70.5289 27.1685C70.411 26.7338 69.9658 26.4771 69.5319 26.5949C69.1005 26.7103 68.8413 27.1539 68.9591 27.5894L69.8 30.7281Z" fill="#FFCF23"/>
<path fill-rule="evenodd" clip-rule="evenodd" d="M84.2325 61.3707C84.0091 60.9824 83.5151 60.8475 83.1251 61.0742C82.7359 61.2968 82.6043 61.7932 82.8269 62.1824L86.8926 69.2195C87.1161 69.6079 87.6101 69.7427 88.0001 69.5169C88.3893 69.2918 88.5217 68.7945 88.2983 68.4062L84.2325 61.3707Z" fill="#FFCF23"/>
<path fill-rule="evenodd" clip-rule="evenodd" d="M62.36 35.5081C62.6744 35.8282 63.1912 35.8249 63.5088 35.5081C63.8265 35.1928 63.8233 34.6785 63.5088 34.3592L61.2111 32.0614C60.8918 31.7429 60.3783 31.7446 60.0614 32.0631C59.7445 32.3783 59.7429 32.8926 60.0622 33.2103L62.36 35.5081Z" fill="#FFCF23"/>
<path fill-rule="evenodd" clip-rule="evenodd" d="M97.2202 58.8893L90.1815 54.8292C89.7931 54.605 89.2983 54.735 89.074 55.1266C88.8482 55.5141 88.983 56.009 89.3698 56.2348L96.4093 60.2965C96.7968 60.52 97.2917 60.39 97.5167 60C97.7402 59.6108 97.6069 59.1143 97.2202 58.8893Z" fill="#FFCF23"/>
<path fill-rule="evenodd" clip-rule="evenodd" d="M58.7288 41.7992L55.5893 40.9574C55.1538 40.8404 54.7094 41.0996 54.594 41.5327C54.477 41.9641 54.7329 42.4102 55.1684 42.528L58.3071 43.3681C58.7386 43.4867 59.1854 43.2259 59.3024 42.7937C59.4202 42.3631 59.1602 41.9186 58.7288 41.7992Z" fill="#FFCF23"/>
</g>
<path d="M2.14087 85.8189C2.14087 84.4489 2.20448 82.6678 2.3317 80.4758C2.45891 78.2837 2.6106 76.0232 2.78674 73.6941C2.96289 71.365 3.18307 69.1583 3.4473 67.0739C3.71152 64.9895 4.0002 63.3895 4.31335 62.2739C4.43079 61.7846 4.70969 61.491 5.15005 61.3931C5.59042 61.2953 6.03569 61.2463 6.48584 61.2463C7.09257 61.2463 7.61612 61.354 8.05649 61.5693C8.49686 61.7846 8.71704 62.2543 8.71704 62.9785C8.71704 66.5405 8.49686 70.1075 8.05649 73.6794C7.61612 77.2513 7.37636 80.8183 7.33722 84.3804C7.94395 83.4605 8.72683 82.7706 9.68585 82.3106C10.6449 81.8507 11.6626 81.6207 12.7391 81.6207C14.2265 81.6207 15.5085 81.9241 16.585 82.5308C17.6614 83.1376 18.5324 83.9204 19.1978 84.8795C19.8633 85.8385 20.3575 86.9492 20.6804 88.2116C21.0033 89.474 21.1648 90.7608 21.1648 92.0721C21.1648 92.7963 21.0914 93.7015 20.9446 94.7878C20.7978 95.874 20.5776 97.019 20.2841 98.2226C19.9905 99.4263 19.6186 100.62 19.1685 101.804C18.7183 102.988 18.185 104.05 17.5685 104.99C16.9519 105.929 16.2425 106.687 15.44 107.265C14.6376 107.842 13.7568 108.131 12.7978 108.131C12.6021 108.131 12.3427 108.102 12.0198 108.043C11.6969 107.984 11.3739 107.896 11.051 107.779C10.7281 107.661 10.4589 107.51 10.2437 107.324C10.0284 107.138 9.92072 106.908 9.92072 106.634C9.92072 106.321 10.1115 106.1 10.4932 105.973C10.8748 105.846 11.1831 105.782 11.418 105.782C12.2987 105.391 13.0816 104.574 13.7666 103.331C14.4516 102.088 15.0241 100.723 15.484 99.2355C15.944 97.748 16.2914 96.2752 16.5262 94.8171C16.7611 93.359 16.8785 92.17 16.8785 91.2501C16.8785 90.7217 16.8003 90.0171 16.6437 89.1364C16.4871 88.2556 16.2473 87.3847 15.9244 86.5235C15.6015 85.6623 15.1611 84.9186 14.6033 84.2923C14.0455 83.666 13.3849 83.3528 12.6216 83.3528C11.7018 83.3528 10.9678 83.8275 10.4198 84.7767C9.87179 85.7259 9.4412 86.8318 9.12805 88.0941C8.8149 89.3565 8.6045 90.6581 8.49686 91.9988C8.38921 93.3394 8.33539 94.3914 8.33539 95.1547C8.33539 95.644 8.41857 96.1284 8.58493 96.6079C8.75129 97.0875 8.94212 97.567 9.15741 98.0465C9.3727 98.526 9.56353 99.0153 9.72989 99.5144C9.89625 100.013 9.97943 100.508 9.97943 100.997C9.97943 101.232 9.87668 101.428 9.67117 101.584C9.46567 101.741 9.22591 101.868 8.9519 101.966C8.6779 102.064 8.38921 102.127 8.08585 102.157C7.78248 102.186 7.55251 102.201 7.39594 102.201C6.28033 102.201 5.50724 101.936 5.07666 101.408C4.64608 100.88 4.27421 100.136 3.96106 99.1768C3.27604 97.0043 2.80142 94.7975 2.5372 92.5566C2.27298 90.3156 2.14087 88.0697 2.14087 85.8189ZM27.1735 104.784C27.1735 104.217 27.1979 103.62 27.2469 102.993C27.2958 102.367 27.3398 101.78 27.379 101.232L27.5551 96.8281C27.7508 93.3052 27.9906 89.8409 28.2744 86.4354C28.5582 83.0299 28.7979 79.5852 28.9937 76.1014C29.1111 74.1834 29.1992 72.2996 29.2579 70.45C29.3166 68.6005 29.4047 66.7167 29.5221 64.7986C29.4438 64.6421 29.4047 64.5344 29.4047 64.4757C29.4047 64.2017 29.5074 63.9864 29.7129 63.8298C29.9184 63.6733 30.1582 63.5411 30.4322 63.4335C30.7062 63.3259 30.9949 63.2525 31.2983 63.2133C31.6016 63.1742 31.8316 63.1546 31.9882 63.1546H32.6634C33.2701 63.2329 33.7105 63.4237 33.9845 63.7271C34.2585 64.0304 34.4347 64.3925 34.513 64.8133C34.5912 65.2341 34.6108 65.6843 34.5717 66.1638C34.5325 66.6433 34.513 67.0886 34.513 67.4996C34.513 70.3375 34.4445 73.2293 34.3074 76.1748C34.1704 79.1204 34.0139 82.0758 33.8377 85.0409C33.6616 88.0061 33.5001 90.9712 33.3533 93.9364C33.2065 96.9015 33.1331 99.8324 33.1331 102.729V104.784C33.1331 105.704 32.8738 106.311 32.3551 106.604C31.8365 106.898 31.1172 107.045 30.1973 107.045C29.3949 107.045 28.6903 106.869 28.0836 106.516C27.4768 106.164 27.1735 105.587 27.1735 104.784ZM40.0519 94.9199C40.0519 93.8043 40.1938 92.6544 40.4776 91.4703C40.7614 90.2862 41.2115 89.2195 41.8281 88.2703C42.4446 87.3211 43.2226 86.548 44.162 85.951C45.1015 85.3541 46.2366 85.0556 47.5675 85.0556C48.5657 85.0556 49.6177 85.2269 50.7235 85.5694C51.8293 85.9119 52.8422 86.4012 53.7621 87.0373C54.6819 87.6734 55.4306 88.4513 56.0079 89.3712C56.5853 90.2911 56.874 91.3186 56.874 92.4538C56.874 93.8238 56.6245 95.1254 56.1254 96.3584C55.6263 97.5914 54.9266 98.6924 54.0263 99.6612C53.126 100.63 52.074 101.393 50.8703 101.951C49.6666 102.509 48.3602 102.788 46.951 102.788C45.7963 102.788 44.7883 102.577 43.9272 102.157C43.066 101.736 42.3467 101.173 41.7693 100.469C41.192 99.7639 40.7614 98.9321 40.4776 97.9731C40.1938 97.0141 40.0519 95.9963 40.0519 94.9199ZM44.3675 94.8611C44.3675 95.2134 44.4213 95.7321 44.529 96.4171C44.6366 97.1021 44.7981 97.7725 45.0134 98.4281C45.2287 99.0838 45.5076 99.6514 45.8501 100.131C46.1926 100.61 46.6085 100.831 47.0978 100.791C48.1351 100.674 48.9914 100.336 49.6666 99.7786C50.3419 99.2208 50.8899 98.5407 51.3107 97.7382C51.7315 96.9358 52.025 96.0648 52.1914 95.1254C52.3578 94.1859 52.4409 93.2954 52.4409 92.4538C52.4409 91.3773 52.2306 90.477 51.8098 89.7529C51.389 89.0287 50.699 88.4416 49.74 87.9914C49.74 88.0305 49.7596 88.0501 49.7987 88.0501C49.8379 88.0501 49.8575 88.0305 49.8575 87.9914L49.1235 87.8152C48.9278 87.737 48.688 87.6489 48.4042 87.551C48.1204 87.4532 47.8415 87.2379 47.5675 86.9052C46.8042 87.1792 46.2122 87.5315 45.7914 87.962C45.3706 88.3926 45.0525 88.9162 44.8372 89.5327C44.622 90.1492 44.4898 90.888 44.4409 91.7492C44.392 92.6104 44.3675 93.6477 44.3675 94.8611ZM62.2955 93.3345C62.2955 92.2581 62.3983 91.1082 62.6038 89.885C62.8093 88.6617 63.1616 87.5412 63.6607 86.5235C64.1598 85.5058 64.8497 84.6642 65.7304 83.9987C66.6111 83.3333 67.7365 83.0006 69.1066 83.0006C70.0264 83.0006 70.917 83.1522 71.7781 83.4556C72.6393 83.759 73.4515 84.1749 74.2148 84.7033C74.4497 84.3119 74.8216 84.0721 75.3304 83.984C75.8393 83.896 76.2895 83.8519 76.6809 83.8519C76.8375 83.8519 77.0577 83.8617 77.3415 83.8813C77.6252 83.9009 77.9041 83.9596 78.1782 84.0574C78.4522 84.1553 78.6919 84.2727 78.8974 84.4097C79.1029 84.5467 79.2253 84.7425 79.2644 84.9969C79.421 86.3669 79.5286 87.7321 79.5873 89.0923C79.646 90.4526 79.7341 91.8079 79.8516 93.1584C80.0473 95.6832 80.3506 98.1786 80.7616 100.645C81.1727 103.111 81.3782 105.606 81.3782 108.131C81.3782 109.325 81.3243 110.617 81.2167 112.006C81.1091 113.396 80.8253 114.683 80.3653 115.867C79.9054 117.051 79.235 118.034 78.3543 118.817C77.4736 119.6 76.2503 119.992 74.6846 119.992C73.2754 119.992 72.194 119.742 71.4405 119.243C70.687 118.744 70.0069 117.907 69.4001 116.733C69.4393 116.341 69.6888 116.082 70.1488 115.955C70.6087 115.828 71.005 115.764 71.3378 115.764C71.6509 115.764 71.969 115.793 72.2919 115.852C72.6148 115.911 72.8742 116.009 73.0699 116.146L73.8038 116.615C74.528 115.128 74.9684 113.503 75.1249 111.742C75.2815 109.98 75.3598 108.278 75.3598 106.634C75.3598 105.264 75.2913 103.908 75.1543 102.568C75.0173 101.227 74.8803 99.8814 74.7433 98.5309C73.3732 101.017 71.2888 102.259 68.49 102.259C67.1983 102.259 66.1463 101.985 65.3341 101.437C64.5218 100.889 63.8955 100.195 63.4552 99.3529C63.0148 98.5113 62.7114 97.5621 62.5451 96.5052C62.3787 95.4483 62.2955 94.3914 62.2955 93.3345ZM65.9065 93.5988C65.9065 94.0881 65.9261 94.7193 65.9653 95.4923C66.0044 96.2654 66.1072 97.0238 66.2735 97.7676C66.4399 98.5113 66.6796 99.1523 66.9928 99.6905C67.3059 100.229 67.7463 100.498 68.3139 100.498C69.3904 100.498 70.2417 100.077 70.868 99.2355C71.4943 98.3939 71.9885 97.3908 72.3506 96.2263C72.7127 95.0618 73.0014 93.8581 73.2167 92.6153C73.432 91.3724 73.706 90.3498 74.0387 89.5474C73.9995 89.2734 73.98 89.0042 73.98 88.74V87.9327C73.5298 87.0911 72.8742 86.362 72.013 85.7455C71.1518 85.129 70.2613 84.7131 69.3414 84.4978C69.224 84.4782 69.1163 84.4684 69.0185 84.4684C68.4705 84.4684 68.0203 84.7914 67.668 85.4373C67.2179 86.2201 66.8656 87.1547 66.6111 88.2409C66.3567 89.3272 66.1757 90.3987 66.068 91.4556C65.9604 92.5125 65.9065 93.2269 65.9065 93.5988ZM87.3868 93.6575C87.3868 91.8569 87.5972 90.0905 88.018 88.3584C88.4388 86.6263 88.796 84.899 89.0896 83.1767C89.1679 82.7265 89.4762 82.4476 90.0144 82.34C90.5526 82.2324 91.0077 82.1785 91.3795 82.1785C92.0254 82.1785 92.5441 82.2764 92.9355 82.4721C93.0921 82.5504 93.2389 82.6385 93.3759 82.7363C93.5129 82.8342 93.5814 82.9614 93.5814 83.118C93.5814 84.8012 93.3808 86.4452 92.9795 88.0501C92.5783 89.655 92.3777 91.3578 92.3777 93.1584C92.3777 93.7651 92.4217 94.3376 92.5098 94.8758C92.5979 95.4141 92.6811 95.9474 92.7593 96.4758L92.9355 97.3272C92.9355 97.4838 92.9453 97.6208 92.9649 97.7382C92.9844 97.8557 93.0138 97.9927 93.0529 98.1492C93.0529 98.5015 92.8034 98.7413 92.3043 98.8685C91.8052 98.9957 91.3697 99.0593 90.9979 99.0593C90.4303 99.0593 89.9067 98.9468 89.4272 98.7217C88.9477 98.4966 88.571 98.1101 88.2969 97.5621L87.8859 96.7107C87.6511 96.2605 87.5336 95.7566 87.5336 95.1988C87.5336 94.641 87.4847 94.1272 87.3868 93.6575ZM89.2658 75.984V75.4262C89.2658 74.5063 89.4957 73.6843 89.9557 72.9601C90.4156 72.236 91.1055 71.8739 92.0254 71.8739C92.1428 71.8739 92.2554 71.8837 92.363 71.9033C92.4707 71.9228 92.5832 71.9326 92.7006 71.9326C92.9355 71.9718 93.2438 72.0647 93.6254 72.2115C94.0071 72.3583 94.1979 72.5883 94.1979 72.9014V72.9601C94.1196 73.1167 94.0707 73.2782 94.0511 73.4446C94.0315 73.6109 93.9826 73.7528 93.9043 73.8702L93.963 73.8115C93.7282 74.4183 93.5373 74.9076 93.3905 75.2794C93.2438 75.6513 93.0823 75.9498 92.9061 76.1748C92.73 76.3999 92.5098 76.5614 92.2456 76.6592C91.9814 76.7571 91.6046 76.806 91.1153 76.806C91.037 76.806 90.9 76.7962 90.7043 76.7767C90.5086 76.7571 90.2982 76.718 90.0731 76.6592C89.848 76.6005 89.6572 76.5222 89.5006 76.4244C89.344 76.3265 89.2658 76.1797 89.2658 75.984ZM100.207 82.0905C100.207 81.8947 100.358 81.7284 100.662 81.5914C100.965 81.4544 101.327 81.3565 101.748 81.2978C102.169 81.2391 102.57 81.1901 102.952 81.151C103.333 81.1119 103.622 81.0923 103.818 81.0923C103.896 80.5638 104.008 79.8495 104.155 78.9492C104.302 78.0488 104.483 77.0849 104.698 76.0574C104.914 75.0299 105.183 73.9975 105.506 72.9601C105.829 71.9228 106.22 70.9834 106.68 70.1418C107.14 69.3002 107.683 68.6103 108.309 68.0721C108.936 67.5338 109.67 67.2647 110.511 67.2647H110.452C110.726 67.2256 110.996 67.1962 111.26 67.1766C111.524 67.1571 111.793 67.1473 112.067 67.1473C112.713 67.1473 113.413 67.2745 114.166 67.5289C114.92 67.7834 115.619 68.1406 116.265 68.6005C116.911 69.0604 117.454 69.6133 117.895 70.2592C118.335 70.9051 118.555 71.5901 118.555 72.3143C118.555 72.8819 118.413 73.4935 118.13 74.1491C117.846 74.8048 117.352 75.1326 116.647 75.1326C116.412 75.1326 116.172 75.0739 115.928 74.9565C115.683 74.8391 115.453 74.7118 115.238 74.5748C115.316 74.1247 115.355 73.6745 115.355 73.2244C115.355 72.9895 115.345 72.7644 115.326 72.5491C115.267 71.8641 115.12 71.2623 114.886 70.7436C114.651 70.225 114.313 69.814 113.873 69.5106C113.432 69.2072 112.909 69.0947 112.302 69.173C111.5 69.2904 110.898 69.7797 110.497 70.6409C110.095 71.502 109.816 72.5247 109.66 73.7088C109.503 74.8929 109.405 76.0965 109.366 77.3198C109.327 78.543 109.249 79.5363 109.131 80.2996C110.051 80.3779 110.829 80.4171 111.465 80.4171H113.858C114.015 80.4171 114.284 80.4268 114.665 80.4464C115.047 80.466 115.419 80.5051 115.781 80.5638C116.143 80.6226 116.466 80.7253 116.75 80.8721C117.034 81.0189 117.175 81.2097 117.175 81.4446C117.175 81.6403 117.097 81.8116 116.941 81.9583C116.784 82.1051 116.593 82.2079 116.368 82.2666C116.143 82.3253 115.908 82.3645 115.664 82.384C115.419 82.4036 115.218 82.4134 115.062 82.4134C114.377 82.4134 113.794 82.384 113.315 82.3253C112.835 82.2666 112.375 82.2128 111.935 82.1639C111.495 82.1149 111.035 82.0905 110.555 82.0905C110.076 82.0905 109.513 82.159 108.867 82.296C108.671 84.4684 108.515 86.6214 108.397 88.7547C108.28 90.888 108.221 93.041 108.221 95.2134C108.221 98.619 108.329 101.956 108.544 105.224C108.76 108.493 109.151 111.81 109.719 115.177C109.797 115.49 109.865 115.847 109.924 116.248C109.983 116.65 110.012 117.036 110.012 117.408C110.012 117.76 109.904 118.049 109.689 118.274C109.474 118.499 109.205 118.661 108.882 118.758C108.559 118.856 108.226 118.925 107.884 118.964C107.541 119.003 107.233 119.023 106.959 119.023C105.843 119.023 105.06 118.851 104.61 118.509C104.16 118.166 103.837 117.477 103.641 116.439C103.152 113.68 102.839 110.895 102.702 108.087C102.565 105.278 102.496 102.445 102.496 99.5878C102.496 96.789 102.599 93.9951 102.805 91.2061C103.01 88.4171 103.27 85.6428 103.583 82.8831C103.426 82.8831 103.157 82.8929 102.775 82.9125C102.394 82.932 102.012 82.932 101.63 82.9125C101.249 82.8929 100.916 82.8244 100.632 82.707C100.348 82.5895 100.207 82.384 100.207 82.0905ZM121.863 87.8152C121.863 87.2477 122.024 86.8758 122.347 86.6996C122.67 86.5235 123.076 86.4354 123.566 86.4354C124.368 86.4354 124.98 86.5871 125.401 86.8905C125.821 87.1938 126.032 87.7272 126.032 88.4905C126.032 89.4104 126.1 90.5602 126.237 91.94C126.374 93.3199 126.575 94.6605 126.839 95.9621C127.103 97.2636 127.417 98.3841 127.779 99.3236C128.141 100.263 128.517 100.733 128.909 100.733C129.633 100.733 130.274 100.175 130.832 99.0593C131.39 97.9437 131.879 96.5737 132.3 94.9492C132.721 93.3248 133.083 91.578 133.386 89.7088C133.689 87.8397 133.9 86.1712 134.017 84.7033C134.095 83.9009 134.286 83.3186 134.59 82.9565C134.893 82.5944 135.446 82.4134 136.248 82.4134C137.168 82.4134 137.839 82.795 138.259 83.5584C138.68 84.3217 138.949 85.2611 139.067 86.3767C139.165 87.3357 139.214 88.3339 139.214 89.3712V89.8703V91.0446C139.214 91.7884 139.223 92.4538 139.243 93.041L140.094 111.037L140.212 114.032C140.251 114.306 140.28 114.565 140.3 114.81C140.319 115.054 140.329 115.314 140.329 115.588C140.329 116.703 140.089 117.423 139.61 117.746C139.13 118.069 138.352 118.23 137.276 118.23C137.041 118.23 136.743 118.21 136.381 118.171C136.018 118.132 135.666 118.054 135.324 117.936C134.981 117.819 134.688 117.658 134.443 117.452C134.198 117.247 134.076 116.987 134.076 116.674L134.193 116.38C134.291 115.206 134.34 113.973 134.34 112.681V112.065C134.321 110.538 134.272 108.992 134.193 107.426C134.115 105.861 134.027 104.295 133.929 102.729C133.831 101.163 133.782 99.6563 133.782 98.2079C133.508 98.8147 133.19 99.441 132.828 100.087C132.466 100.733 132.045 101.315 131.566 101.834C131.086 102.352 130.543 102.783 129.936 103.125C129.33 103.468 128.645 103.639 127.881 103.639C126.766 103.639 125.846 103.346 125.122 102.758C124.398 102.171 123.835 101.408 123.434 100.469C123.032 99.5291 122.744 98.4771 122.568 97.3125C122.391 96.148 122.274 94.9835 122.215 93.8189C122.157 92.6544 122.117 91.5437 122.098 90.4868C122.078 89.4299 122 88.5394 121.863 87.8152Z" fill="black"/>
</g>
<defs>
<clipPath id="clip0_5583_177">
<rect width="145" height="145" fill="white"/>
</clipPath>
<clipPath id="clip1_5583_177">
<rect width="52" height="52" fill="white" transform="translate(49 21)"/>
</clipPath>
</defs>
</svg>
